<mxfile host="app.diagrams.net" modified="2020-08-23T11:52:06.705Z" agent="5.0 (Macintosh; Intel Mac OS X 10_15_3) AppleWebKit/537.36 (KHTML, like Gecko) Chrome/81.0.4044.138 Safari/537.36" etag="DcMQgV_UJa2dqfaeA8YZ" version="13.6.4" type="github">
  <diagram name="Page-1" id="12e1b939-464a-85fe-373e-61e167be1490">
    <mxGraphModel dx="2365" dy="1535" grid="1" gridSize="10" guides="1" tooltips="1" connect="1" arrows="1" fold="1" page="1" pageScale="1.5" pageWidth="1169" pageHeight="826" background="#ffffff" math="0" shadow="0">
      <root>
        <mxCell id="0" />
        <mxCell id="1" parent="0" />
        <mxCell id="ACcv200ihPQqjM33xnzT-37" value="依赖层" style="text;html=1;strokeColor=none;fillColor=none;align=center;verticalAlign=middle;whiteSpace=wrap;rounded=0;perimeterSpacing=10;fontSize=43;fontFamily=Comic Sans MS;" vertex="1" parent="1">
          <mxGeometry x="50" y="870" width="210" height="100" as="geometry" />
        </mxCell>
        <mxCell id="ACcv200ihPQqjM33xnzT-38" value="业务层" style="text;html=1;strokeColor=none;fillColor=none;align=center;verticalAlign=middle;whiteSpace=wrap;rounded=0;perimeterSpacing=10;fontSize=43;fontFamily=Comic Sans MS;" vertex="1" parent="1">
          <mxGeometry x="30" y="460" width="210" height="100" as="geometry" />
        </mxCell>
        <mxCell id="ACcv200ihPQqjM33xnzT-44" value="jest" style="shape=ext;rounded=1;html=1;whiteSpace=wrap;dashed=1;dashPattern=1 4;fontFamily=Comic Sans MS;fontSize=43;" vertex="1" parent="1">
          <mxGeometry x="240" y="880" width="150" height="80" as="geometry" />
        </mxCell>
        <mxCell id="ACcv200ihPQqjM33xnzT-45" value="antd2.X" style="shape=ext;rounded=1;html=1;whiteSpace=wrap;dashed=1;dashPattern=1 4;fontFamily=Comic Sans MS;fontSize=43;" vertex="1" parent="1">
          <mxGeometry x="877" y="880" width="230" height="80" as="geometry" />
        </mxCell>
        <mxCell id="ACcv200ihPQqjM33xnzT-46" value="react16.4" style="shape=ext;rounded=1;html=1;whiteSpace=wrap;dashed=1;dashPattern=1 4;fontFamily=Comic Sans MS;fontSize=43;" vertex="1" parent="1">
          <mxGeometry x="640" y="880" width="220" height="80" as="geometry" />
        </mxCell>
        <mxCell id="ACcv200ihPQqjM33xnzT-47" value="immutable" style="shape=ext;rounded=1;html=1;whiteSpace=wrap;dashed=1;dashPattern=1 4;fontFamily=Comic Sans MS;fontSize=43;" vertex="1" parent="1">
          <mxGeometry x="400" y="880" width="230" height="80" as="geometry" />
        </mxCell>
        <mxCell id="ACcv200ihPQqjM33xnzT-48" value="lodash" style="shape=ext;rounded=1;html=1;whiteSpace=wrap;dashed=1;dashPattern=1 4;fontFamily=Comic Sans MS;fontSize=43;" vertex="1" parent="1">
          <mxGeometry x="1120" y="880" width="230" height="80" as="geometry" />
        </mxCell>
        <mxCell id="ACcv200ihPQqjM33xnzT-49" value="lodash" style="shape=ext;rounded=1;html=1;whiteSpace=wrap;dashed=1;dashPattern=1 4;fontFamily=Comic Sans MS;fontSize=43;" vertex="1" parent="1">
          <mxGeometry x="1770" y="880" width="280" height="80" as="geometry" />
        </mxCell>
      </root>
    </mxGraphModel>
  </diagram>
</mxfile>
